# xmcd
#
# Track frame offsets: 
#        182
#        13592
#        28160
#        38880
#        51600
#        62987
#        75235
#        88985
#        103110
#        114020
#        124752
#        136677
#        152132
#        168025
#        178082
#        189900
#        202217
#        217380
#        237117
#        252892
#
# Disc length: 3551 seconds
#
# Revision: 0
# Processed by: cddbd v1.5.2PL0 Copyright (c) Steve Scherf et al.
# Submitted via: ExactAudioCopy v0.95a5
#
DISCID=170ddd14
DTITLE=Kenny Rogers - For The Good Times
DYEAR=1989
DGENRE=Country
TTITLE0=Ruby Don't Take Your Love To Town
TTITLE1=Sunshine
TTITLE2=Goodtime Liberator
TTITLE3=Reuben James
TTITLE4=Always Leaving Always Gone
TTITLE5=Elvira
TTITLE6=Shine On Ruby Mountain
TTITLE7=Loser
TTITLE8=Homemade Lie
TTITLE9=Ticket To Nowhere
TTITLE10=Poems For My Little Lady
TTITLE11=For The Good Times
TTITLE12=Good Lady Of Toronto
TTITLE13=Where Does Rosie Go
TTITLE14=Me And Bobby McGee
TTITLE15=What Am I Gonna Do
TTITLE16=All God's Lonely Children
TTITLE17=Lay It Down
TTITLE18=Tulsa Turn Around
TTITLE19=Ruby Don't Take Your Love to Town (Reprise)
EXTD=
EXTT0=Ruby Dont Take Your Love To Town
EXTT1=
EXTT2=
EXTT3=
EXTT4=
EXTT5=
EXTT6=
EXTT7=
EXTT8=
EXTT9=
EXTT10=
EXTT11=
EXTT12=
EXTT13=
EXTT14=
EXTT15=
EXTT16=
EXTT17=
EXTT18=
EXTT19=
PLAYORDER=
